<svg width="1500" height="500" viewBox="0 0 1500 500" fill="none" xmlns="http://www.w3.org/2000/svg">
<rect width="1500" height="500" fill="black"/>
<rect width="250" height="250" transform="translate(625 125)" fill="#FF8040"/>
<path d="M792.936 320.313C797.972 328.536 804.524 334.579 816.111 334.579C825.845 334.579 832.063 329.714 832.063 322.992C832.063 314.936 825.675 312.083 814.96 307.397L809.087 304.877C792.135 297.655 780.873 288.607 780.873 269.48C780.873 251.861 794.298 238.448 815.278 238.448C830.214 238.448 840.952 243.647 848.69 257.258L830.397 269.004C826.369 261.782 822.024 258.936 815.278 258.936C808.397 258.936 804.036 263.302 804.036 269.004C804.036 276.052 808.401 278.905 818.48 283.27L824.353 285.786C844.313 294.345 855.583 303.071 855.583 322.69C855.583 343.841 838.968 355.429 816.655 355.429C794.837 355.429 780.742 345.032 773.845 331.405L792.936 320.313ZM709.948 322.349C713.639 328.897 716.996 334.433 725.067 334.433C732.786 334.433 737.655 331.413 737.655 319.671V239.79H761.147V319.988C761.147 344.313 746.885 355.385 726.067 355.385C707.258 355.385 696.365 345.651 690.825 333.927L709.948 322.349Z" fill="black"/>
</svg>
