<svg width="1500" height="500" viewBox="0 0 1500 500" fill="none" xmlns="http://www.w3.org/2000/svg">
<rect width="1500" height="500" fill="#17171C"/>
<path d="M625 131.25C625 127.798 627.798 125 631.25 125L868.75 125C872.202 125 875 127.798 875 131.25V368.75C875 372.202 872.202 375 868.75 375H631.25C627.798 375 625 372.202 625 368.75V131.25Z" fill="#FFBBCC"/>
<path d="M750.008 302.552C744.797 302.552 739.827 301.924 735.098 300.67C730.466 299.319 726.316 297.292 722.649 294.59C718.981 291.888 716.038 287.305 713.818 283.348C711.695 279.392 710.585 273.458 710.489 268.054C710.489 267.185 710.778 266.461 711.357 265.882C711.936 265.207 712.66 264.869 713.529 264.869H727.281C728.536 264.869 729.452 265.207 730.031 265.882C730.707 266.558 731.238 267.475 731.624 268.633C732.106 272.107 733.216 274.954 734.953 277.174C736.69 279.297 738.862 280.889 741.468 281.951C744.17 282.916 747.161 283.399 750.443 283.399C756.523 283.399 760.602 280.891 763.087 277.463C766.368 273.507 768.009 268.006 768.009 260.961V217.853C768.009 217.301 767.561 216.853 767.009 216.853H713.923C712.862 216.853 711.993 216.515 711.318 215.84C710.739 215.164 710.449 214.344 710.449 213.379V200.74C710.449 199.775 710.739 198.955 711.318 198.279C711.993 197.604 712.862 197.266 713.923 197.266H786.343C787.405 197.266 788.274 197.604 788.949 198.279C789.625 198.955 789.962 199.823 789.962 200.885V262.792C789.962 270.803 788.274 278.956 784.896 284.746C781.615 290.537 776.982 294.976 770.999 298.064C765.112 301.056 758.115 302.552 750.008 302.552Z" fill="#17171C"/>
</svg>
